<?xml version="1.0" standalone="no"?>
<!DOCTYPE svg PUBLIC "-//W3C//DTD SVG 20010904//EN"
 "http://www.w3.org/TR/2001/REC-SVG-20010904/DTD/svg10.dtd">
<svg version="1.0" xmlns="http://www.w3.org/2000/svg"
 width="400.000000pt" height="400.000000pt" viewBox="0 0 400.000000 400.000000"
 preserveAspectRatio="xMidYMid meet">
<metadata>
Created by potrace 1.11, written by Peter Selinger 2001-2013
</metadata>
<g transform="translate(0.000000,400.000000) scale(0.100000,-0.100000)"
fill="#000000" stroke="none">
<path d="M0 2000 l0 -2000 2000 0 2000 0 0 2000 0 2000 -2000 0 -2000 0 0
-2000z m1127 445 c81 -24 144 -73 175 -136 14 -30 29 -69 32 -86 l6 -33 -85 0
-85 0 0 30 c0 21 -11 42 -34 68 l-34 37 -91 0 c-88 0 -91 -1 -122 -31 -25 -25
-32 -41 -33 -74 -1 -62 43 -98 170 -140 167 -55 246 -105 283 -179 64 -126 12
-261 -124 -322 -76 -34 -214 -38 -303 -10 -123 40 -196 118 -216 229 l-6 32
85 0 c85 0 85 0 85 -26 0 -86 115 -147 235 -125 68 13 105 51 105 111 0 78
-30 103 -190 155 -208 68 -284 140 -284 270 0 115 77 201 209 235 52 13 169
11 222 -5z m471 -42 c6 -27 37 -173 68 -326 l58 -279 76 299 c42 164 80 310
84 326 6 26 8 27 75 27 l69 0 78 -315 c43 -173 81 -315 84 -315 4 0 35 142 70
315 l63 315 79 0 c43 0 78 -4 78 -9 0 -8 -176 -777 -196 -857 -6 -23 -10 -24
-83 -24 l-77 0 -78 303 c-43 166 -81 305 -85 309 -4 4 -40 -117 -80 -270 -41
-152 -78 -292 -83 -309 l-9 -33 -77 0 -78 0 -98 428 c-54 235 -100 435 -102
445 -5 15 3 17 74 17 l80 0 10 -47z m1397 30 c44 -115 319 -843 323 -856 4
-16 -3 -18 -79 -15 l-84 3 -34 98 -33 97 -172 0 -171 0 -35 -100 -35 -100 -83
0 c-63 0 -83 3 -79 13 2 6 78 207 167 445 l163 432 73 0 c59 0 73 -3 79 -17z"/>
<path d="M2853 2069 l-62 -179 125 0 c116 0 126 1 119 18 -3 9 -31 89 -62 177
-30 88 -56 161 -57 162 -1 1 -29 -79 -63 -178z"/>
</g>
</svg>
